PathFileType	4	(X/Y/Z)	C:\Users\Public\Documents\Vicon Data\AADs Machine\Frameless Spring Test\Dec182020\10lbsSpring1.trc
DataRate	CameraRate	NumFrames	NumMarkers	Units	OrigDataRate	OrigDataStartFrame	OrigNumFrames
100.0	100.0	20	9	mm	100.0	391	1041	
Frame#	Time	Heel			MP5			Toe			MMAL			LMAL			Shank			SpringTop			LateralKnee			MedialKnee			
		X1	Y1	Z1	X2	Y2	Z2	X3	Y3	Z3	X4	Y4	Z4	X5	Y5	Z5	X6	Y6	Z6	X7	Y7	Z7	X8	Y8	Z8	X9	Y9	Z9	
391	3.9	-193.15158	46.407867	-770.22296	-239.15381	37.976353	-598.58264	-171.83629	39.024921	-529.38483	-120.93592	111.26771	-709.44189	-242.44872	118.16735	-701.81647	-166.38588	268.66675	-628.61322	-188.20045	193.64427	-750.659	-205.86792	469.54758	-681.91687	-130.36327	467.75186	-680.96948
392	3.91	-193.15816	46.414852	-770.17419	-239.142	37.949165	-598.57251	-171.82201	38.999332	-529.3764	-120.88517	111.29807	-709.3916	-242.46585	118.19028	-701.76343	-166.4178	268.47574	-628.39636	-188.17058	193.7365	-750.50391	-205.78734	469.43939	-681.40015	-130.43129	467.62668	-680.45673
393	3.92	-193.16791	46.393059	-770.19904	-239.16998	37.94735	-598.5766	-171.85101	38.97773	-529.39435	-120.91602	111.24299	-709.42847	-242.49307	118.17845	-701.76044	-166.38087	268.3862	-628.18781	-188.13972	193.74013	-750.37292	-205.7292	469.39728	-680.91034	-130.41013	467.53433	-680.0954
394	3.93	-193.17825	46.404179	-770.20789	-239.16481	37.985558	-598.5954	-171.84915	39.026627	-529.38885	-120.93006	111.26527	-709.4469	-242.45383	118.16948	-701.81561	-166.27815	268.336	-628.02094	-188.12465	193.821	-750.29517	-205.62071	469.41489	-680.52216	-130.19478	467.68091	-679.69189
395	3.94	-193.14343	46.37318	-770.19623	-239.11955	37.958923	-598.59491	-171.78365	38.99913	-529.37604	-120.84246	111.24133	-709.42334	-242.41154	118.18078	-701.79181	-166.12857	268.25412	-627.88855	-188.13615	193.89417	-750.3504	-205.43333	469.37814	-680.27368	-129.91188	467.63208	-679.48352
396	3.95	-193.15181	46.396679	-770.17822	-239.14397	37.96067	-598.58832	-171.83316	38.989937	-529.3949	-120.77193	111.23421	-709.422	-242.37508	118.17918	-701.76147	-166.04161	268.17093	-627.823	-188.03304	193.95493	-750.31506	-205.32938	469.38647	-679.99573	-129.70442	467.68985	-679.31683
397	3.96	-193.15175	46.403057	-770.20001	-239.14339	38.017372	-598.58881	-171.82466	39.050098	-529.38245	-120.79959	111.24545	-709.45917	-242.36459	118.24104	-701.79236	-165.92529	268.1571	-627.72253	-187.92053	193.93463	-750.09625	-205.21245	469.47223	-679.68787	-129.83003	467.37732	-679.12903
398	3.97	-193.11066	46.360001	-770.19055	-239.09482	37.975285	-598.62341	-171.76691	38.983997	-529.401	-120.70977	111.17747	-709.48169	-242.28444	118.22437	-701.8031	-165.8011	268.05368	-627.64325	-187.93752	193.95334	-750.2229	-205.17656	469.49533	-679.42627	-129.68796	467.24982	-678.92853
399	3.98	-193.13071	46.408604	-770.20325	-239.13132	37.992519	-598.59186	-171.78958	39.004642	-529.40021	-120.73412	111.20598	-709.46161	-242.29167	118.22353	-701.78357	-165.76523	268.02206	-627.53766	-187.80821	194.02528	-750.01282	-205.08415	469.45386	-679.18219	-129.68822	467.18149	-678.69019
400	3.99	-193.14183	46.443695	-770.18829	-239.13924	38.013653	-598.59155	-171.8295	39.045738	-529.38397	-120.75475	111.2486	-709.44055	-242.33968	118.28079	-701.75012	-165.77066	267.98996	-627.41888	-187.8251	194.05521	-749.89331	-205.08899	469.43893	-678.96857	-129.51375	467.41037	-678.41931
401	4	-193.07297	46.36483	-770.22632	-239.12125	37.951324	-598.61224	-171.78859	38.968307	-529.41718	-120.73487	111.1768	-709.46759	-242.33823	118.23489	-701.80127	-165.7756	267.88879	-627.33331	-187.8038	194.02913	-749.87134	-205.17838	469.39606	-678.69208	-129.465	467.41876	-678.1142
402	4.01	-193.12778	46.41185	-770.22162	-239.11568	38.000626	-598.60193	-171.78796	39.019844	-529.39746	-120.75391	111.26443	-709.44019	-242.33838	118.22488	-701.79279	-165.83015	267.86566	-627.16534	-187.98793	194.14003	-749.92822	-205.14331	469.33224	-678.44666	-129.53337	467.5257	-677.70062
403	4.02	-193.15811	46.415848	-770.16541	-239.1664	37.978466	-598.58112	-171.84248	39.011806	-529.37231	-120.8203	111.27483	-709.41119	-242.39731	118.23595	-701.75397	-165.93839	267.7962	-627.03925	-187.87866	194.18835	-749.65588	-205.33661	469.30322	-678.11963	-129.63074	467.46481	-677.35114
404	4.03	-193.10271	46.417114	-770.21912	-239.14981	37.975933	-598.61438	-171.79761	39.019115	-529.39722	-120.79554	111.26508	-709.4234	-242.40337	118.27096	-701.72754	-165.86687	267.79245	-626.77216	-187.97681	194.23643	-749.75287	-205.29854	469.31482	-677.85968	-129.66028	467.42349	-677.00165
405	4.04	-193.12457	46.393894	-770.23889	-239.12996	37.98291	-598.59265	-171.78325	39.022964	-529.39862	-120.79971	111.24221	-709.42462	-242.33783	118.17338	-701.80005	-165.82034	267.73114	-626.61719	-187.87868	194.23586	-749.54559	-205.26949	469.24164	-677.50623	-129.68431	467.34494	-676.73169
406	4.05	-193.16237	46.384254	-770.17279	-239.14597	37.953056	-598.59961	-171.82947	38.992496	-529.40417	-120.79364	111.24911	-709.40259	-242.40501	118.22044	-701.7196	-165.88159	267.59921	-626.43561	-187.82953	194.30417	-749.39868	-205.25087	469.20288	-677.14447	-129.54286	467.34695	-676.35297
407	4.06	-193.1086	46.420223	-770.19397	-239.12674	37.990368	-598.59991	-171.7986	39.029278	-529.39063	-120.80558	111.24293	-709.39288	-242.37862	118.26987	-701.73468	-165.83377	267.5488	-626.2486	-187.77672	194.41539	-749.3324	-205.0898	469.23575	-676.65692	-129.63464	467.12811	-675.97845
408	4.07	-193.11693	46.410919	-770.20337	-239.12225	37.962517	-598.60309	-171.79967	39.010109	-529.39697	-120.77558	111.24077	-709.42535	-242.34689	118.24834	-701.76172	-165.77684	267.43796	-626.02362	-187.74118	194.43655	-749.20508	-204.99251	469.13159	-676.20453	-129.54274	467.06955	-675.49054
409	4.08	-193.13696	46.372601	-770.21649	-239.1133	37.957111	-598.6145	-171.80035	38.978519	-529.40442	-120.7457	111.1801	-709.43573	-242.34862	118.2232	-701.76166	-165.77945	267.28699	-625.80292	-187.73422	194.4583	-749.09808	-204.87622	469.08398	-675.69482	-129.55254	466.95328	-675.08313
410	4.09	-193.11623	46.447124	-770.20471	-239.14548	37.988377	-598.59607	-171.83432	39.021694	-529.37537	-120.76878	111.26292	-709.37311	-242.35699	118.27575	-701.71655	-165.81966	267.19537	-625.59076	-187.70323	194.6165	-748.92773	-204.87622	469.0668	-675.1673	-129.36179	467.17349	-674.53558
